<svg t="1597813484963" class="icon" viewBox="0 0 1024 1024" version="1.1" xmlns="http://www.w3.org/2000/svg" p-id="43785" width="200" height="200"><path d="M512 0.118C229.284 0.118 0.118 229.314 0.118 512 0.118 794.714 229.284 1023.882 512 1023.882c282.718 0 511.882-229.168 511.882-511.882C1023.882 229.314 794.718 0.118 512 0.118z m-2.688 722.864c-117.786 0-213.294-95.478-213.294-213.294 0-117.786 95.51-213.264 213.294-213.264 117.788 0 213.296 95.478 213.296 213.264 0.002 117.816-95.508 213.294-213.296 213.294z" fill="#5D9CEC" p-id="43786"></path><path d="M512 0.118c-0.906 0-1.782 0.032-2.688 0.032v296.276c117.788 0 213.296 95.478 213.296 213.264 0 39.178-10.592 75.888-29.026 107.444l261.658 151.058c43.648-75.358 68.64-162.836 68.64-256.19C1023.882 229.314 794.718 0.118 512 0.118z" fill="#48CFAD" p-id="43787"></path><path d="M509.312 193.384v49.27l279.438-161.338a513.796 513.796 0 0 0-42.646-24.65L509.312 193.384zM509.312 94.876v49.272l188.958-109.068a510.648 510.648 0 0 0-54.486-17.808l-134.472 77.604zM789.032 672.212l234.258-135.218c0.376-8.282 0.594-16.622 0.594-24.994 0-8.124-0.188-16.246-0.562-24.278l-276.936 159.87 42.646 24.62zM874.356 721.482l132-76.202a517.754 517.754 0 0 0 11.748-56.048l-186.426 107.63 42.678 24.62zM1010.792 396.432l-296.09 170.93a212.176 212.176 0 0 1-21.12 49.77l10.124 5.844 315.272-182.022a509.838 509.838 0 0 0-8.186-44.522zM722.61 509.688c0 1.312-0.032 2.594-0.062 3.904l276.468-159.62a503.938 503.938 0 0 0-15.092-40.552l-265.658 153.372a213.352 213.352 0 0 1 4.344 42.896zM705.144 425.114l260.534-150.404a514.852 514.852 0 0 0-21.37-36.928l-259.942 150.09a211.294 211.294 0 0 1 20.778 37.242zM656.062 354.942l263.782-152.278a511.274 511.274 0 0 0-27.586-33.336l-272.968 157.588a214.602 214.602 0 0 1 36.772 28.026zM861.39 137.896a524.79 524.79 0 0 0-34.398-29.398l-317.68 183.394v4.532c21.464 0 42.21 3.188 61.77 9.092l290.308-167.62z" fill="#37BC9B" p-id="43788"></path></svg>