<svg t="1597974431846" class="icon" viewBox="0 0 1024 1024" version="1.1" xmlns="http://www.w3.org/2000/svg" p-id="43492" width="200" height="200"><path d="M84.802 21.376h854.41v767.612H84.802z" fill="#E6E9ED" p-id="43493"></path><path d="M939.212 810.364H84.802c-11.794 0-21.358-9.562-21.358-21.376V21.376c0-11.796 9.562-21.36 21.358-21.36h854.41c11.78 0 21.342 9.562 21.342 21.36v767.612c0 11.812-9.562 21.376-21.342 21.376zM106.162 767.678h811.708V42.734H106.162v724.944z" fill="#FC6E51" p-id="43494"></path><path d="M854.4 910.674c-59.214-55.124-52.152-99.624-39.714-123.996 7.186-9.876 11.248-21.062 11.248-32.938 0-39.5-44.936-71.558-100.31-71.558-55.4 0-100.306 32.058-100.306 71.558 0 11.876 4.062 23.062 11.25 32.938 12.438 24.374 19.5 68.872-39.75 123.996v33.874c23.938 12.436 80.782 13.498 128.806 5.938 48 7.56 104.874 6.498 128.778-5.938v-33.874z" fill="#434A54" p-id="43495"></path><path d="M853.776 895.798H597.442a21.364 21.364 0 0 0-21.374 21.376v85.434c0 11.812 9.56 21.376 21.374 21.376h256.334c11.782 0 21.344-9.562 21.344-21.376v-85.434c0-11.812-9.564-21.376-21.344-21.376z" fill="#CCD1D9" p-id="43496"></path><path d="M426.572 212.292H170.238c-11.796 0-21.358 9.562-21.358 21.358v170.886c0 11.794 9.56 21.358 21.358 21.358h256.334c11.796 0 21.36-9.562 21.36-21.358v-170.886c0-11.796-9.562-21.358-21.36-21.358zM405.2 383.176H191.598v-128.168H405.2v128.168z" fill="#4A89DC" p-id="43497"></path><path d="M235.376 340.444h128.152c11.796 0 21.358-9.562 21.358-21.36s-9.56-21.36-21.358-21.36h-128.152c-11.796 0-21.374 9.562-21.374 21.36s9.578 21.36 21.374 21.36z" fill="#4A89DC" p-id="43498"></path><path d="M855.4 436.002a148.888 148.888 0 0 0 19.718-74.2 148.9 148.9 0 0 0-19.718-74.186l-0.282-0.562a15.252 15.252 0 0 1-0.5-0.75 150.77 150.77 0 0 0-53.496-53.5 9.88 9.88 0 0 0-0.75-0.484 9.54 9.54 0 0 0-0.594-0.312c-21.876-12.544-47.188-19.716-74.156-19.716a148.634 148.634 0 0 0-74.182 19.732c-0.188 0.11-0.406 0.188-0.594 0.296-0.25 0.14-0.468 0.312-0.718 0.468a150.59 150.59 0 0 0-53.532 53.532c-0.156 0.25-0.344 0.468-0.468 0.734-0.124 0.188-0.188 0.376-0.312 0.562-12.562 21.874-19.748 47.216-19.748 74.186 0 26.982 7.186 52.324 19.748 74.2 0.124 0.188 0.188 0.376 0.312 0.562 0.25 0.438 0.5 0.86 0.782 1.266a150.88 150.88 0 0 0 53.218 52.998c0.25 0.156 0.468 0.312 0.718 0.468 0.344 0.218 0.718 0.376 1.032 0.562 21.782 12.406 46.936 19.468 73.744 19.468 26.75 0 51.938-7.062 73.688-19.468 0.376-0.156 0.718-0.344 1.062-0.562l0.75-0.468a150.802 150.802 0 0 0 53.184-52.998c0.282-0.406 0.562-0.828 0.812-1.266l0.282-0.562z m-55.776-31.466c-5.562 9.56-2.812 21.638 5.938 27.966a105.6 105.6 0 0 1-9.25 9.266c-6.344-8.766-18.406-11.484-28-5.968-9.562 5.546-13.25 17.374-8.782 27.264a107.848 107.848 0 0 1-12.656 3.422c-1.062-10.796-10.188-19.234-21.25-19.234-11.092 0-20.184 8.438-21.246 19.234a106.796 106.796 0 0 1-12.688-3.422c4.438-9.89 0.782-21.732-8.812-27.264-9.56-5.516-21.624-2.796-27.966 5.968a107.56 107.56 0 0 1-9.25-9.266c8.782-6.328 11.468-18.406 5.968-27.966-5.562-9.594-17.376-13.266-27.25-8.812a100.932 100.932 0 0 1-3.438-12.656c10.812-1.078 19.25-10.172 19.25-21.264 0-11.062-8.438-20.172-19.25-21.25 0.876-4.328 2.062-8.546 3.438-12.672 2.812 1.266 5.782 1.89 8.718 1.89 7.406 0 14.562-3.828 18.532-10.688 5.5-9.562 2.812-21.64-5.968-27.966a101.468 101.468 0 0 1 9.282-9.266 21.368 21.368 0 0 0 17.312 8.828c3.624 0 7.282-0.922 10.624-2.86 9.594-5.546 13.25-17.376 8.812-27.266a106.694 106.694 0 0 1 12.688-3.422c1.062 10.796 10.154 19.234 21.246 19.234 11.062 0 20.188-8.438 21.25-19.234a107.848 107.848 0 0 1 12.656 3.422c-4.468 9.89-0.782 21.718 8.782 27.266a21.426 21.426 0 0 0 10.688 2.86c6.688 0 13.188-3.156 17.312-8.828a105.324 105.324 0 0 1 9.25 9.266c-8.75 6.326-11.5 18.404-5.938 27.966 3.938 6.86 11.124 10.688 18.498 10.688 2.938 0 5.938-0.624 8.75-1.89a106.83 106.83 0 0 1 3.406 12.672c-10.782 1.078-19.216 10.188-19.216 21.25 0 11.092 8.436 20.186 19.216 21.264a106.618 106.618 0 0 1-3.406 12.656c-9.878-4.454-21.75-0.782-27.25 8.812z" fill="#967ADC" p-id="43499"></path><path d="M725.624 297.724c-17.124 0-33.214 6.672-45.306 18.766-12.124 12.11-18.782 28.204-18.782 45.312 0 17.124 6.656 33.216 18.782 45.326 12.092 12.092 28.184 18.764 45.306 18.764 17.124 0 33.188-6.672 45.312-18.764 24.968-25 24.968-65.654 0-90.638-12.126-12.094-28.188-18.766-45.312-18.766z m15.092 79.186a21.3 21.3 0 0 1-15.094 6.266c-5.5 0-10.936-2.094-15.124-6.266-8.31-8.344-8.31-21.858 0-30.202a21.316 21.316 0 0 1 15.124-6.266 21.3 21.3 0 0 1 15.094 6.266 21.348 21.348 0 0 1 0 30.202z" fill="#967ADC" p-id="43500"></path><path d="M426.588 682.182H170.238a21.408 21.408 0 0 1-19.11-11.75c-3.608-7.25-2.826-15.938 2.016-22.376l128.168-170.916c4.032-5.36 10.376-8.532 17.094-8.532s13.046 3.172 17.094 8.532l127.588 170.104a21.384 21.384 0 0 1 4.86 13.624c0 11.752-9.564 21.314-21.36 21.314z m-213.63-42.686h170.882l-85.434-113.92-85.448 113.92z" fill="#8CC153" p-id="43501"></path><path d="M314.562 581.684c8.342 8.312 8.342 21.876 0 30.188-8.344 8.312-21.876 8.312-30.218 0s-8.344-21.876 0-30.188a21.31 21.31 0 0 1 30.218 0z" fill="#8CC153" p-id="43502"></path><path d="M426.572 84.124H170.238c-11.796 0-21.358 9.562-21.358 21.36 0 11.794 9.56 21.358 21.358 21.358h256.334c11.796 0 21.36-9.562 21.36-21.358 0-11.798-9.562-21.36-21.36-21.36zM853.776 84.124H597.442c-11.812 0-21.374 9.562-21.374 21.36 0 11.794 9.56 21.358 21.374 21.358h256.334c11.782 0 21.344-9.562 21.344-21.358 0-11.798-9.564-21.36-21.344-21.36z" fill="#434A54" p-id="43503"></path><path d="M490.648 0.018h42.718v810.346h-42.718z" opacity=".1" p-id="43504"></path></svg>