<svg t="1607416171078" class="icon" viewBox="0 0 1024 1024" version="1.1" xmlns="http://www.w3.org/2000/svg" p-id="13532" width="200" height="200"><path d="M798.235936 511.99828c0 157.609784-127.772934 285.377557-285.374116 285.377557s-285.374116-127.767773-285.374117-285.377557c0-157.611504 127.772934-285.374116 285.374117-285.374117s285.374116 127.764333 285.374116 285.374117z" fill="#D3EBE4" p-id="13533"></path><path d="M512.860099 511.99828m-220.653353 0a220.653353 220.653353 0 1 0 441.306706 0 220.653353 220.653353 0 1 0-441.306706 0Z" fill="#8DCDB5" p-id="13534"></path><path d="M512.860099 511.99828m-179.46491 0a179.464911 179.464911 0 1 0 358.929821 0 179.464911 179.464911 0 1 0-358.929821 0Z" fill="#69C0A3" p-id="13535"></path><path d="M512.860099 511.99828m-123.565327 0a123.565327 123.565327 0 1 0 247.130655 0 123.565327 123.565327 0 1 0-247.130655 0Z" fill="#41B692" p-id="13536"></path></svg>
