<svg t="1605768773564" class="icon" viewBox="0 0 1077 1024" version="1.1" xmlns="http://www.w3.org/2000/svg" p-id="949" width="200" height="200"><path d="M269.473684 0a53.894737 53.894737 0 0 1 6.305684 107.412211L269.473684 107.789474H161.684211a53.894737 53.894737 0 0 0-53.517474 47.589052L107.789474 161.684211v700.631578a53.894737 53.894737 0 0 0 47.589052 53.517474L161.684211 916.210526h754.526315a53.894737 53.894737 0 0 0 53.517474-47.589052L970.105263 862.315789V161.684211a53.894737 53.894737 0 0 0-47.589052-53.517474L916.210526 107.789474h-107.789473a53.894737 53.894737 0 0 1-6.305685-107.412211L808.421053 0h107.789473a161.684211 161.684211 0 0 1 161.414737 152.198737L1077.894737 161.684211v700.631578a161.684211 161.684211 0 0 1-152.198737 161.414737L916.210526 1024H161.684211a161.684211 161.684211 0 0 1-161.414737-152.198737L0 862.315789V161.684211A161.684211 161.684211 0 0 1 152.198737 0.269474L161.684211 0h107.789473z m269.473684 0a53.894737 53.894737 0 0 1 53.894737 53.894737v570.421895l123.580632-123.472843a53.894737 53.894737 0 0 1 71.141052-4.473263l5.066106 4.473263a53.894737 53.894737 0 0 1 4.473263 71.141053l-4.473263 5.066105-215.578948 215.578948a53.894737 53.894737 0 0 1-76.207158 0l-215.578947-215.578948a53.894737 53.894737 0 0 1 71.141053-80.680421l5.066105 4.473263L485.052632 624.424421V53.894737a53.894737 53.894737 0 0 1 53.894736-53.894737z" fill="#008df0" p-id="950"></path></svg>
