<svg t="1607415939756" class="icon" viewBox="0 0 1024 1024" version="1.1" xmlns="http://www.w3.org/2000/svg" p-id="3540" width="200" height="200"><path d="M712 112c58.193 0 107.315 38.833 122.868 91.999L904 204a8 8 0 0 1 8 8v56a8 8 0 0 1-8 8l-69.133 0.002C819.315 329.167 770.192 368 712 368c-58.192 0-107.315-38.833-122.867-91.998L120 276a8 8 0 0 1-8-8v-56a8 8 0 0 1 8-8l469.132-0.001C604.685 150.833 653.807 112 712 112z m0 72c-30.928 0-56 25.072-56 56s25.072 56 56 56 56-25.072 56-56-25.072-56-56-56zM712 656c58.193 0 107.315 38.833 122.868 91.999L904 748a8 8 0 0 1 8 8v56a8 8 0 0 1-8 8l-69.133 0.002C819.315 873.167 770.192 912 712 912c-58.192 0-107.315-38.833-122.867-91.998L120 820a8 8 0 0 1-8-8v-56a8 8 0 0 1 8-8l469.132-0.001C604.685 694.833 653.807 656 712 656z m0 72c-30.928 0-56 25.072-56 56s25.072 56 56 56 56-25.072 56-56-25.072-56-56-56zM394 476a8 8 0 0 0-8 8v56a8 8 0 0 0 8 8h510a8 8 0 0 0 8-8v-56a8 8 0 0 0-8-8H394z m-274 0a8 8 0 0 0-8 8v56a8 8 0 0 0 8 8h99a8 8 0 0 0 8-8v-56a8 8 0 0 0-8-8h-99z" fill="#1C6EFF" p-id="3541"></path><path d="M312 384c70.692 0 128 57.308 128 128 0 70.692-57.308 128-128 128-70.692 0-128-57.308-128-128 0-70.692 57.308-128 128-128z m0 72c-30.928 0-56 25.072-56 56s25.072 56 56 56 56-25.072 56-56-25.072-56-56-56z" fill="#44D7B6" p-id="3542"></path></svg>
