<svg xmlns="http://www.w3.org/2000/svg" xmlns:xlink="http://www.w3.org/1999/xlink" width="15" height="16" viewBox="0 0 15 16">
  <defs>
    <style>
      .cls-1 {
        fill: #01eff3;
        fill-rule: evenodd;
        filter: url(#filter);
      }
    </style>
    <filter id="filter" x="1" y="1" width="13" height="14" filterUnits="userSpaceOnUse">
      <feFlood result="flood" flood-color="#00fbff"/>
      <feComposite result="composite" operator="in" in2="SourceGraphic"/>
      <feBlend result="blend" in2="SourceGraphic"/>
    </filter>
  </defs>
  <path id="形状_905" data-name="形状 905" class="cls-1" d="M14,12.639a2.257,2.257,0,0,1-.674,1.727A2.509,2.509,0,0,1,11.535,15H3.465a2.51,2.51,0,0,1-1.791-.633A2.256,2.256,0,0,1,1,12.639q0-.483.032-0.944A9.138,9.138,0,0,1,1.162,10.7a7.6,7.6,0,0,1,.245-0.989,4.651,4.651,0,0,1,.4-0.889,3.211,3.211,0,0,1,.572-0.738A2.415,2.415,0,0,1,3.165,7.6a2.8,2.8,0,0,1,1.03-.182,1.132,1.132,0,0,1,.388.2q0.3,0.2.688,0.437a4.378,4.378,0,0,0,1,.437,3.974,3.974,0,0,0,2.465,0,4.392,4.392,0,0,0,1-.437q0.383-.241.688-0.437a1.129,1.129,0,0,1,.388-0.2,2.8,2.8,0,0,1,1.03.182,2.417,2.417,0,0,1,.789.488,3.209,3.209,0,0,1,.572.738,4.667,4.667,0,0,1,.4.889,7.685,7.685,0,0,1,.245.989,9.178,9.178,0,0,1,.129.994Q14,12.157,14,12.639ZM10.007,2.025A3.35,3.35,0,0,1,11.045,4.5a3.35,3.35,0,0,1-1.039,2.475A3.438,3.438,0,0,1,7.5,8,3.438,3.438,0,0,1,4.993,6.974,3.35,3.35,0,0,1,3.954,4.5,3.35,3.35,0,0,1,4.993,2.025,3.438,3.438,0,0,1,7.5,1,3.438,3.438,0,0,1,10.007,2.025Z"/>
</svg>
