<svg xmlns="http://www.w3.org/2000/svg" xmlns:xlink="http://www.w3.org/1999/xlink" width="21" height="22" viewBox="0 0 21 22">
  <defs>
    <style>
      .cls-1 {
        fill-rule: evenodd;
        fill: url(#linear-gradient);
      }
    </style>
    <linearGradient id="linear-gradient" x1="10.563" y1="1.375" x2="10.563" y2="20.281" gradientUnits="userSpaceOnUse">
      <stop offset="0" stop-color="#e5f9ff"/>
      <stop offset="1" stop-color="#2dcbff"/>
    </linearGradient>
  </defs>
  <path id="形状_2_拷贝" data-name="形状 2 拷贝" class="cls-1" d="M12.466,7.979H8.655a0.949,0.949,0,0,0-.953.945v3.781a0.941,0.941,0,0,0,.279.668,0.956,0.956,0,0,0,.674.277h3.811a0.956,0.956,0,0,0,.674-0.277,0.941,0.941,0,0,0,.279-0.668V8.925a0.941,0.941,0,0,0-.279-0.668,0.956,0.956,0,0,0-.674-0.277h0Zm-0.4,4.326h-3V9.326h3V12.3Zm0,0,7.074-.544a0.945,0.945,0,1,0,0-1.891H17.23V7.979h1.906a0.945,0.945,0,1,0,0-1.891H17.23a0.969,0.969,0,0,0-.158.014,2.855,2.855,0,0,0-1.763-1.748A0.925,0.925,0,0,0,15.324,4.2V2.307a0.953,0.953,0,0,0-1.905,0V4.2H11.513V2.307a0.953,0.953,0,0,0-1.905,0V4.2H7.7V2.307a0.953,0.953,0,0,0-1.905,0V4.2a0.992,0.992,0,0,0,.014.157A2.861,2.861,0,0,0,4.049,6.1a0.968,0.968,0,0,0-.158-0.014H1.986a0.945,0.945,0,1,0,0,1.891H3.891V9.87H1.986a0.945,0.945,0,1,0,0,1.891H3.891v1.891H1.986a0.945,0.945,0,1,0,0,1.891H3.891a1.009,1.009,0,0,0,.158-0.013A2.861,2.861,0,0,0,5.81,17.276a0.923,0.923,0,0,0-.014.157v1.891a0.953,0.953,0,0,0,1.905,0V17.433H9.608v1.891a0.953,0.953,0,0,0,1.905,0V17.433h1.906v1.891a0.953,0.953,0,0,0,1.905,0V17.433a0.924,0.924,0,0,0-.013-0.157,2.854,2.854,0,0,0,1.761-1.749,0.875,0.875,0,0,0,.158.015h1.906a0.945,0.945,0,1,0,0-1.891H17.23V11.761h1.906Zm-3.373,3.183a1.028,1.028,0,0,1-.3.731,1.044,1.044,0,0,1-.737.3H6.4a1.045,1.045,0,0,1-.737-0.3,1.027,1.027,0,0,1-.3-0.731V6.687A1.038,1.038,0,0,1,6.4,5.654h8.322a1.038,1.038,0,0,1,1.041,1.033v8.257Zm0,0"/>
</svg>
