<svg t="1599815139228" class="icon" viewBox="0 0 1025 1024" version="1.1" xmlns="http://www.w3.org/2000/svg" p-id="5815" width="200" height="200"><path d="M950.658471 77.376c-61.184-63.104-261.248-76.352-418.432-76.352L525.314471 1.024C520.194471 0.896 498.370471 0.128 466.946471 0.128c-118.592 0-276.224 9.088-353.344 51.776C0.642471 114.432-2.941529 391.168 0.898471 509.248c-3.84 119.936-0.192 400.384 112.704 463.04 76.992 42.56 234.624 51.648 353.152 51.648 31.488 0 53.44-0.704 58.624-0.896l6.976 0c157.12 0 357.184-13.248 418.368-76.352 69.056-71.104 74.24-327.232 73.28-434.624C1024.962471 404.608 1019.778471 148.608 950.658471 77.376zM912.578471 910.336c-6.848 7.104-17.152 13.312-29.824 18.88L882.754471 576.832c0-19.584-15.744-35.392-35.264-35.392L776.962471 541.44c-19.52 0-35.392 15.808-35.392 35.392l0 382.912c-19.648 2.24-39.424 3.968-58.752 5.44L682.818471 788.48c0-19.584-15.808-35.264-35.328-35.264L576.962471 753.216c-19.584 0-35.392 15.68-35.392 35.264l0 182.144c-3.456 0-6.784 0-9.216 0-5.056 0-7.872 0-7.872 0s-16.384 0.512-41.728 0.64l0-270.976c0-19.52-15.808-35.264-35.328-35.264L376.834471 665.024c-19.52 0-35.328 15.744-35.328 35.264l0 267.2c-19.584-1.344-39.36-3.2-58.816-5.44L282.690471 523.776c0-19.392-15.744-35.2-35.2-35.2L176.834471 488.576c-19.52 0-35.328 15.808-35.328 35.2l0 403.52c-0.576-0.32-1.472-0.576-2.048-0.896-97.472-54.016-85.888-405.824-85.504-417.216C53.698471 503.296 50.498471 401.28 62.274471 299.392c23.296-8.192 124.032-37.248 263.04 19.584C412.802471 354.624 519.746471 429.504 557.890471 532.992l30.656 83.2 20.032-86.4c28.544-124.096 88.832-174.272 132.992-194.688l0 63.168c0 6.72 2.368 12.416 7.232 17.216 4.8 4.928 10.624 7.36 17.28 7.296 6.336-0.064 12.224-2.432 17.088-7.296l92.672-92.544c4.8-4.928 7.168-10.688 7.232-17.216-0.064-6.656-2.432-12.352-7.232-17.216l-92.736-92.672c-4.736-4.864-10.688-7.232-17.024-7.232-6.656 0-12.416 2.368-17.28 7.168-4.864 4.928-7.232 10.56-7.296 17.216l0.064 65.088c-49.344 16.448-121.472 59.968-165.056 174.656C520.450471 365.504 425.410471 302.528 345.346471 269.952 218.434471 218.176 119.874471 229.696 70.850471 241.664c12.416-66.432 33.344-124.48 68.608-144 71.232-39.552 238.72-44.992 327.488-44.992 34.816 0 57.536 0.832 57.536 0.832s2.816 0 7.808 0c50.176 0 324.48 2.688 380.288 60.288C974.146471 177.344 971.074471 512 971.074471 512S974.146471 846.72 912.578471 910.336z" p-id="5816"></path></svg>