<svg t="1605768886715" class="icon" viewBox="0 0 1024 1024" version="1.1" xmlns="http://www.w3.org/2000/svg" p-id="1083" width="200" height="200"><path d="M917.333333 213.333333a42.666667 42.666667 0 0 1-42.666666 42.666667v640a128 128 0 0 1-128 128h-469.333334a128 128 0 0 1-128-128V256a42.666667 42.666667 0 1 1 0-85.333333h128V110.933333C277.333333 49.664 332.16 3.541333 397.738667 0.213333L405.333333 0h213.333334c68.864 0 128 47.317333 128 110.933333V170.666667h128a42.666667 42.666667 0 0 1 42.666666 42.666666z m-128 42.666667h-554.666666v640a42.666667 42.666667 0 0 0 37.674666 42.368L277.333333 938.666667h469.333334a42.666667 42.666667 0 0 0 42.666666-42.666667V256z m-384 128a42.666667 42.666667 0 0 1 42.666667 42.666667v341.333333a42.666667 42.666667 0 0 1-85.333333 0v-341.333333a42.666667 42.666667 0 0 1 42.666666-42.666667z m213.333334 0a42.666667 42.666667 0 0 1 42.666666 42.666667v341.333333a42.666667 42.666667 0 0 1-85.333333 0v-341.333333a42.666667 42.666667 0 0 1 42.666667-42.666667z m0-298.666667h-213.333334c-25.386667 0-42.666667 13.824-42.666666 25.6V170.666667h298.666666V110.933333c0-10.88-14.72-23.466667-36.949333-25.344L618.666667 85.333333z" fill="#008df0" p-id="1084"></path></svg>
